# xmcd
#
# Track frame offsets: 
#        150
#        29059
#        48653
#        71004
#        96226
#        119798
#        142009
#        168119
#        189643
#        217673
#
# Disc length: 3189 seconds
#
# Revision: 0
# Processed by: cddbd v1.5.2PL0 Copyright (c) Steve Scherf et al.
# Submitted via: ExactAudioCopy v1.0b3
#
DISCID=990c730a
DTITLE=Yen Khoa - Chim Sao Ngay Xua
DYEAR=1999
DGENRE=
TTITLE0=Chim sao ngay xua
TTITLE1=Dieu buon phuong Nam
TTITLE2=Dung trach dieu bong
TTITLE3=Mong cho
TTITLE4=Ve duoi mai nha
TTITLE5=Loi ru cua dat
TTITLE6=Dau xot ly chim quyen
TTITLE7=Anh mat que huong
TTITLE8=Tinh gan tinh xa
TTITLE9=Yeu dau Ha Tien
EXTD=
EXTT0=
EXTT1=
EXTT2=
EXTT3=
EXTT4=
EXTT5=
EXTT6=
EXTT7=
EXTT8=
EXTT9=
PLAYORDER=
